<svg xmlns="http://www.w3.org/2000/svg" data-name="Layer 1" viewBox="0 0 496.9 200.61">
  <path d="M76.51 200.61H7.65v-7.6H0v-60.84h7.65v-7.6h68.86v7.6h7.65v22.81h-30.6v-15.21H30.61v45.63h22.95v-15.21h30.6V193h-7.65v7.6zm45.9 0h-30.6v-76.04h76.51v7.6h7.65v22.81h-7.65v15.21h7.65v30.42h-30.6v-30.42h-22.95v30.42zm0-45.63h22.95v-15.21h-22.95v15.21zm137.71 45.63h-68.85v-7.6h-7.65v-60.84h7.65v-7.6h68.85v7.6h7.65v60.84h-7.65v7.6zm-22.95-45.63v-15.21h-22.95v45.63h22.95v-30.42zm68.85 45.63h-30.6v-76.04h30.6v38.02h7.65v-7.6h7.65v-7.6h7.65v7.6h7.65v7.6h7.65v-38.02h30.6v76.04h-30.6v-7.6h-7.65v-7.6h-7.65v-7.6h-7.65v7.6h-7.65v7.6h-7.65v7.6zm107.11 0h-30.6v-76.04h30.6v7.6h7.65v7.6h7.65v7.6h7.65v-22.81h30.6v76.04h-30.6v-22.81h-7.65v-7.6h-7.65v-7.6h-7.65v38.02zM38.2 106.26H0V11.09h95.5v9.52h9.55v28.55H95.5v19.03h9.55v38.07h-38.2V68.19H38.2v38.07zm0-57.1h28.65V30.13H38.2v19.03zm85.94 47.58h-9.55V20.61h9.55v-9.52h95.5v19.03h-66.85v19.03h28.65v19.03h-28.65v19.03h66.85v19.03h-95.5v-9.52zm190.99 9.52h-85.95V11.09h85.95v9.52h9.55v9.52h9.55v57.1h-9.55v9.52h-9.55v9.52zm-28.65-76.13h-19.1v57.1h19.1v-9.52h9.55V39.64h-9.55v-9.52z" fill="#231f20"/>
  <path d="M358.9 50.1h-5.98v-6.2l-.03.03h12.26l-.03-12.51h6.66v12.79h6.14v6.01h12.51v6.07h6.19v-6.36h6.28v-12.5h6.25V24.94h6.08v-5.77h-6.04V6.42h5.87V0h12.96v6.48h5.92v12.5H428V6.79h-12.63v12.16h12.66v6.29h6.07V37.7h6.42v12.5h6.24v6.08h5.99v-6.15h12.75v-6.24h6.01V31.51l6.39-.07V44.1l12.64-.08v6.21h-6.36v6.2h-6.33v12.46h-6.2v18.77h-6.2v18.92h-87.6V87.62h-6.22V69.04h-6.28V56.66h-6.5m25.27 43.32h74.96v-5.92h-74.96v5.92zm106.39-68.61l6.39.07v12.48l-6.36.08V31.35l-.03.02z"/>
  <path d="M352.92 43.9l-6.26.02V31.44l6.27-.03-.04 12.52.03-.03zm137.62-12.55l-12.64.07v-6.09h12.61v6.04l.03-.02z"/>
  <path d="M365.15 31.46h-12.26v-5.95h12.5l-.24 5.95z"/>
</svg>
